<?xml version="1.0" encoding="UTF-8" standalone="no"?>
<svg width="997px" height="356px" viewBox="0 0 997 356" version="1.1" xmlns="http://www.w3.org/2000/svg" xmlns:xlink="http://www.w3.org/1999/xlink" xmlns:sketch="http://www.bohemiancoding.com/sketch/ns">
    <!-- Generator: Sketch 3.0.4 (8054) - http://www.bohemiancoding.com/sketch -->
    <title>Boost Logo</title>
    <desc>Created with Sketch.</desc>
    <defs></defs>
    <g id="Page-1" stroke="none" stroke-width="1" fill="none" fill-rule="evenodd" sketch:type="MSPage">
        <g id="Boost-Logo" sketch:type="MSArtboardGroup">
            <g id="Power" sketch:type="MSLayerGroup" transform="translate(185.000000, 0.000000)" fill="#E28200">
                <path d="M166.497,356.075 C81.972,356.048 10.826,293.878 0.967,209.583 C-6.462,146.059 16.693,94.439 66.951,54.958 C69.047,53.312 71.256,51.808 73.313,50.117 C86.761,39.065 105.228,40.815 115.41,54.141 C125.662,67.559 122.316,86.337 107.55,96.056 C92.087,106.234 79.412,118.959 70.379,135.14 C31.978,203.924 74.305,288.112 150.786,299.013 C204.237,306.63 251.303,275.733 269.248,230.792 C288.659,182.179 271.535,126.976 227.766,97.636 C221.058,93.14 215.732,87.671 213.387,79.732 C209.798,67.58 214.486,54.476 224.853,47.715 C236.034,40.423 249.393,41.522 259.652,49.8 C269.116,57.436 278.861,64.683 287.251,73.577 C315.067,103.063 330.789,137.854 333.168,178.418 C336.375,233.115 316.84,278.684 276.329,314.974 C250.035,338.528 218.74,351.832 183.441,355.281 C181.122,355.507 178.815,355.949 176.493,356.041 C173.166,356.173 169.829,356.075 166.497,356.075" id="Fill-1" sketch:type="MSShapeGroup"></path>
                <path d="M193.133,105.135 C193.135,129.966 193.109,154.798 193.16,179.629 C193.168,183.848 192.601,187.929 191.247,191.909 C187.38,203.27 177.074,211.16 166.302,211.013 C155.768,210.87 145.552,202.937 141.797,191.936 C140.553,188.289 139.866,184.55 139.868,180.661 C139.894,130.498 139.883,80.336 139.886,30.173 C139.886,22.945 141.966,16.365 146.259,10.548 C156.741,-3.654 176.29,-3.671 186.749,10.543 C191.016,16.342 193.174,22.859 193.156,30.141 C193.093,55.139 193.132,80.137 193.133,105.135" id="Fill-2" sketch:type="MSShapeGroup"></path>
            </g>
            <path d="M47.065,261.316 C47.045,268.066 46.939,273.529 45.124,278.801 C41.507,289.31 32.8,294.961 21.12,294.278 C10.857,293.677 3.426,287.116 1.045,276.543 C0.273,273.118 -0.048,269.657 -0.047,266.137 C-0.024,193.495 -0.026,120.852 -0.039,48.21 C-0.04,42.333 0.581,36.574 2.882,31.109 C6.649,22.158 13.583,17.794 23.743,17.911 C33.803,18.026 40.928,22.647 44.482,31.451 C46.508,36.469 47.027,41.737 47.018,47.113 C46.98,71.768 47.001,96.423 47.001,122.19 C49.31,120.007 51.005,118.358 52.749,116.763 C64.559,105.966 77.297,96.914 93.539,93.936 C140.876,85.258 178.549,108.777 190.276,155.429 C197.939,185.913 196.717,216.303 184.02,245.442 C172.719,271.374 153.636,288.622 125.047,293.187 C97.409,297.601 73.203,290.725 54.199,269.117 C52.136,266.771 49.984,264.503 47.065,261.316 L47.065,261.316 Z M144.734,193.659 C144.8,186.814 144.293,176.982 141.736,167.432 C137.618,152.057 130.217,138.903 114.79,132.282 C94.176,123.437 70.255,132.204 58.978,153.208 C46.99,175.539 46.45,199.258 53.755,223.002 C60.19,243.915 77.17,255.908 98.174,255.993 C116.559,256.067 132.916,243.393 139.984,223.638 C143.105,214.915 144.189,205.851 144.734,193.659 L144.734,193.659 Z" id="B" fill="#535353" sketch:type="MSShapeGroup"></path>
            <path d="M508.269,194.589 C508.547,176.73 510.959,161.19 517.404,146.471 C528.102,122.04 546.231,105.528 571.522,97.403 C596.008,89.536 620.784,89.561 645.115,98.114 C672.2,107.634 690.917,126.135 700.169,153.388 C710.192,182.91 709.64,212.485 696.83,241.053 C683.359,271.092 659.1,287.707 627.022,292.894 C608.064,295.96 589.03,295.372 570.809,288.694 C535.909,275.903 516.349,250.282 510.006,214.068 C509.547,211.45 509.214,208.799 509.002,206.149 C508.643,201.668 508.428,197.175 508.269,194.589 L508.269,194.589 Z M558.284,193.339 C558.921,210.647 561.364,224.483 569.196,236.819 C585.412,262.356 622.606,264.852 642.119,241.734 C651.902,230.144 655.401,216.273 656.385,201.548 C657.51,184.711 656.281,168.185 648.025,153.046 C638.779,136.091 624.252,128.031 604.901,128.925 C586.467,129.776 573.717,139.057 565.858,155.48 C559.666,168.418 558.31,182.253 558.284,193.339 L558.284,193.339 Z" id="O" fill="#535353" sketch:type="MSShapeGroup"></path>
            <path d="M787.64,294.322 C766.789,294.665 746.832,291.178 728.802,280.041 C715.15,271.609 705.549,260.217 703.557,243.653 C702.459,234.529 707.338,226.168 715.615,222.737 C724.735,218.956 733.834,221.209 739.649,228.966 C742.236,232.418 744.331,236.236 746.731,239.832 C760.231,260.062 787.472,268.259 809.925,258.876 C822.26,253.722 827.359,245.386 825.017,234.142 C823.623,227.453 819.524,222.959 813.547,219.909 C803.229,214.644 792.071,211.953 780.967,209.08 C766.631,205.372 752.414,201.309 738.891,195.148 C734.332,193.071 730.078,190.488 725.974,187.621 C698.503,168.429 701.506,135.004 718.618,115.881 C730.117,103.03 744.983,96.374 761.697,93.724 C785.124,90.011 808.184,91.49 830.484,100.096 C841.873,104.491 851.781,111.07 858.878,121.276 C862.574,126.59 864.898,132.448 864.478,139.031 C863.992,146.653 860.43,152.484 853.15,155.233 C844.784,158.392 836.464,158.49 829.081,152.508 C824.271,148.612 820.246,143.901 816.532,138.974 C803.069,121.11 780.029,121.355 765.337,126.936 C762.355,128.069 759.688,129.761 757.316,131.903 C749.219,139.217 749.748,150.322 758.539,156.838 C765.93,162.316 774.65,164.593 783.309,166.998 C798.839,171.312 814.747,174.266 829.882,179.997 C835.8,182.238 841.508,184.894 847.07,187.932 C880.34,206.104 879.22,238.885 865.395,262.482 C855.532,279.317 839.027,286.7 820.856,290.995 C809.941,293.575 798.83,294.42 787.64,294.322" id="S" fill="#535353" sketch:type="MSShapeGroup"></path>
            <path d="M890.968,188.474 C890.968,171.147 890.866,153.819 891.052,136.494 C891.09,132.946 890.079,131.831 886.587,132.107 C882.607,132.422 878.599,132.156 874.727,130.908 C867.27,128.502 862.46,122.222 862.246,114.567 C862.041,107.261 866.493,100.855 873.791,98.129 C877.409,96.778 881.267,95.83 885.045,96.309 C890.477,96.998 891.092,94.597 891.088,89.927 C891.073,75.446 890.131,60.928 891.823,46.486 C893.425,32.811 903.237,23.902 916.094,24.147 C928.909,24.39 938.83,34.215 940.085,47.588 C941.458,62.228 940.703,76.891 940.753,91.542 C940.765,95.203 941.569,96.378 945.398,96.281 C952.034,96.113 958.718,95.622 965.337,96.876 C974.73,98.656 980.521,104.927 980.803,113.741 C981.078,122.317 976.735,127.514 967.219,130.263 C959.894,132.38 952.394,132.314 944.914,132.094 C941.547,131.995 940.769,133.12 940.784,136.335 C940.937,168.489 940.917,200.644 941.006,232.798 C941.014,235.783 941.237,238.798 941.702,241.745 C943.366,252.281 948.518,256.609 959.125,255.869 C964.411,255.501 969.637,254.253 974.885,253.37 C984.857,251.693 992.386,255.221 995.581,263.097 C998.948,271.397 995.72,280.612 987.349,285.969 C980.182,290.556 972.084,292.39 963.752,293.354 C951.623,294.756 939.484,295.017 927.415,292.936 C907.787,289.551 896.135,277.37 893.03,257.325 C891.471,247.261 890.898,237.138 890.952,226.96 C891.02,214.132 890.968,201.303 890.968,188.474" id="T" fill="#535353" sketch:type="MSShapeGroup"></path>
        </g>
    </g>
</svg>